<svg id="checked" xmlns="http://www.w3.org/2000/svg" width="52.234" height="52.234" viewBox="0 0 52.234 52.234">
  <path id="パス_10915" data-name="パス 10915" d="M52.234,26.117A26.117,26.117,0,1,1,26.117,0,26.117,26.117,0,0,1,52.234,26.117Zm0,0" fill="red"/>
  <path id="パス_10916" data-name="パス 10916" d="M128.171,149.378l-4.9-4.9a1.632,1.632,0,0,0-2.308,0l-11.9,11.9-5.375-5.374a1.632,1.632,0,0,0-2.308,0l-4.9,4.9a1.632,1.632,0,0,0,0,2.308l9.794,9.794a1.633,1.633,0,0,0,1.154.478h3.265a1.633,1.633,0,0,0,1.154-.478l16.323-16.323A1.632,1.632,0,0,0,128.171,149.378Zm0,0" transform="translate(-86.209 -129.312)" fill="#fff"/>
</svg>
